***** Once.Were.Warriors.1994.SWESUB.DVDRip.XviD.Zen_Bud.avi ****


Format                           : AVI
File size                        : 955 MiB
Duration                         : 1h 38mn
Overall bit rate                 : 1 355 Kbps

Video

Format                           : MPEG-4 Visual
Codec ID/Hint                    : XviD
Duration                         : 1h 38mn
Bit rate                         : 1 218 Kbps
Width                            : 640 pixels
Height                           : 480 pixels
Display aspect ratio             : 4:3
Stream size                      : 858 MiB (90%)
Writing library                  : XviD 1.2.1 (UTC 2008-12-04)

Audio

Format                           : MPEG Audio
Codec ID/Hint                    : MP3
Duration                         : 1h 38mn
Bit rate                         : 128 Kbps
Channel(s)                       : 2 channels
Sampling rate                    : 44.1 KHz
Stream size                      : 90.2 MiB (9%)


